<?xml version="1.0" encoding="UTF-8"?><svg id="Layer_2" xmlns="http://www.w3.org/2000/svg" viewBox="0 0 800 800"><g id="Layer_1-2"><g><path d="M94.94,218.57c-12.2,0-22.1-9.89-22.1-22.1V94.94c0-12.21,9.9-22.1,22.1-22.1h101.53c12.2,0,22.1,9.89,22.1,22.1s-9.9,22.1-22.1,22.1H117.04v79.43c0,12.21-9.9,22.1-22.1,22.1Z" style="fill:#51bbfe;"/><path d="M705.06,727.16h-101.53c-12.2,0-22.1-9.89-22.1-22.1s9.9-22.1,22.1-22.1h79.43v-79.43c0-12.21,9.9-22.1,22.1-22.1s22.1,9.89,22.1,22.1v101.53c0,12.2-9.9,22.1-22.1,22.1Z" style="fill:#51bbfe;"/><path d="M777.9,800H22.1c-12.2,0-22.1-9.89-22.1-22.1V22.1C0,9.89,9.9,0,22.1,0H777.9c12.2,0,22.1,9.89,22.1,22.1V777.9c0,12.2-9.9,22.1-22.1,22.1ZM44.2,755.8H755.8V44.2H44.2V755.8Z" style="fill:#51bbfe;"/></g><path d="M435.22,426.64h105.65v-105.65h-105.65v-42.1c0-16.99,10.91-28.34,20.26-28.34h85.4v-105.65h-85.4c-65.55,0-118.86,63.93-118.86,134.92v41.17h-77.49v105.65h77.49v228.47h98.6v-135.77" style="fill:#1a202c;"/><path d="M435.22,677.21h-98.6c-12.2,0-22.1-9.89-22.1-22.1v-206.38h-55.39c-12.2,0-22.1-9.89-22.1-22.1v-105.65c0-12.21,9.9-22.1,22.1-22.1h55.39v-19.07c0-85.11,64.55-157.02,140.96-157.02h85.4c12.2,0,22.1,9.89,22.1,22.1v105.65c0,12.21-9.9,22.1-22.1,22.1h-82.1c-.68,1.16-1.45,3.22-1.45,6.24v20h83.56c12.2,0,22.1,9.89,22.1,22.1v105.65c0,12.21-9.9,22.1-22.1,22.1h-105.65c-12.2,0-22.1-9.89-22.1-22.1s9.9-22.1,22.1-22.1h83.56v-61.46h-83.56c-12.2,0-22.1-9.89-22.1-22.1v-42.1c0-27.81,19-50.44,42.36-50.44h63.3v-61.45h-63.3c-51.55,0-96.76,52.72-96.76,112.82v41.17c0,12.21-9.9,22.1-22.1,22.1h-55.39v61.46h55.39c12.2,0,22.1,9.89,22.1,22.1v206.37h54.4v-113.68c0-12.21,9.9-22.1,22.1-22.1s22.1,9.89,22.1,22.1v135.77c0,12.2-9.9,22.1-22.1,22.1Z" style="fill:#51bbfe;"/></g></svg>