<?xml version="1.0" encoding="UTF-8"?><svg id="Layer_2" xmlns="http://www.w3.org/2000/svg" viewBox="0 0 42.05 42.05"><g id="Layer_2-2"><g><path d="M2.53,12.02L27.73,1.63c.9-.4,1.9,.1,2.3,1l10.4,25.1c.4,.9-.1,1.9-1,2.3l-25.1,10.4c-.9,.4-1.9-.1-2.3-1L1.63,14.33c-.4-.9,.1-1.9,.9-2.3Z" style="fill:#51bbfe;"/><path d="M2.03,28.73L11.13,3.02c.3-.9,1.3-1.4,2.2-1.1l25.7,9.2c.9,.3,1.4,1.3,1.1,2.2l-9.2,25.7c-.3,.9-1.3,1.4-2.2,1.1L3.03,30.92c-.9-.3-1.3-1.3-1-2.2Z" style="fill:#51bbfe;"/><path d="M.53,19.82L19.82,.52c.7-.7,1.8-.7,2.5,0l19.2,19.2c.7,.7,.7,1.8,0,2.5l-19.3,19.3c-.7,.7-1.8,.7-2.5,0L.53,22.23c-.7-.6-.7-1.8,0-2.4Z" style="fill:#51bbfe;"/><path d="M7.43,5.62h27.2c1,0,1.8,.8,1.8,1.8v27.2c0,1-.8,1.8-1.8,1.8H7.43c-1,0-1.8-.8-1.8-1.8V7.43c0-1,.8-1.8,1.8-1.8Z" style="fill:#51bbfe;"/><g style="isolation:isolate;"><path d="M14.33,25.32c-.3,0-.5-.1-.7-.2s-.3-.4-.4-.7l-2.4-6.4c-.1-.4-.1-.7,.1-.9s.5-.4,.9-.4c.3,0,.5,.1,.7,.2s.3,.4,.4,.6l1.8,5.3h-.5l1.9-5.3c.1-.3,.2-.5,.4-.7,.2-.1,.4-.2,.6-.2s.5,.1,.6,.2c.2,.1,.3,.4,.4,.7l1.8,5.2h-.4l1.8-5.3c.1-.3,.2-.5,.4-.6,.2-.1,.4-.2,.7-.2,.4,0,.6,.1,.8,.4,.2,.3,.2,.6,0,.9l-2.3,6.4c-.1,.3-.3,.5-.4,.6-.2,.1-.4,.2-.7,.2s-.5-.1-.7-.2-.3-.4-.4-.7l-1.7-4.7h.3l-1.7,4.7c-.1,.3-.2,.5-.4,.6-.4,.4-.6,.5-.9,.5Z" style="fill:#fff;"/><path d="M25.42,25.32c-.4,0-.6-.1-.8-.3s-.3-.5-.3-.8v-6.2c0-.4,.1-.6,.3-.8s.5-.3,.8-.3h2.9c.9,0,1.7,.2,2.2,.7s.8,1.1,.8,1.9c0,.5-.1,1-.3,1.4-.2,.4-.6,.7-1,.9-.4,.2-1,.3-1.6,.3l.1-.2h.5c.3,0,.6,.1,.9,.2,.3,.2,.5,.4,.6,.7l.6,1.1c.1,.2,.2,.5,.2,.7s-.1,.4-.2,.5c-.2,.1-.4,.2-.7,.2s-.5-.1-.7-.2-.4-.3-.5-.6l-1.1-2c-.1-.2-.2-.3-.4-.3-.1-.1-.3-.1-.5-.1h-.6v2.1c0,.3-.1,.6-.3,.8-.3,.2-.6,.3-.9,.3Zm1.1-4.8h1.4c.4,0,.7-.1,.9-.2,.2-.2,.3-.4,.3-.8,0-.3-.1-.6-.3-.8s-.5-.2-.9-.2h-1.4v2Z" style="fill:#fff;"/></g></g></g></svg>