<?xml version="1.0" encoding="UTF-8"?><svg id="Layer_2" xmlns="http://www.w3.org/2000/svg" viewBox="0 0 666.67 666.67"><g id="Layer_1-2"><path d="M200,333.33c0-73.64,59.7-133.33,133.33-133.33s133.33,59.7,133.33,133.33-59.7,133.33-133.33,133.33-133.33-59.7-133.33-133.33Z" style="fill:#fdb813; fill-rule:evenodd;"/><path d="M333.33,0c18.41,0,33.33,14.92,33.33,33.33V100c0,18.41-14.92,33.33-33.33,33.33s-33.33-14.92-33.33-33.33V33.33c0-18.41,14.92-33.33,33.33-33.33Z" style="fill:#fdb813; fill-rule:evenodd;"/><path d="M590.24,76.43c13.02,13.02,13.02,34.12,0,47.14l-66.67,66.67c-13.02,13.02-34.12,13.02-47.14,0-13.02-13.02-13.02-34.12,0-47.14l66.67-66.67c13.02-13.02,34.12-13.02,47.14,0Z" style="fill:#fdb813; fill-rule:evenodd;"/><path d="M533.33,333.33c0-18.41,14.92-33.33,33.33-33.33h66.67c18.41,0,33.33,14.92,33.33,33.33s-14.92,33.33-33.33,33.33h-66.67c-18.41,0-33.33-14.92-33.33-33.33Z" style="fill:#fdb813; fill-rule:evenodd;"/><path d="M476.43,476.43c13.02-13.02,34.12-13.02,47.14,0l66.67,66.67c13.02,13.02,13.02,34.12,0,47.14-13.02,13.02-34.12,13.02-47.14,0l-66.67-66.67c-13.02-13.02-13.02-34.12,0-47.14Z" style="fill:#fdb813; fill-rule:evenodd;"/><path d="M333.33,533.33c18.41,0,33.33,14.92,33.33,33.33v66.67c0,18.41-14.92,33.33-33.33,33.33s-33.33-14.92-33.33-33.33v-66.67c0-18.41,14.92-33.33,33.33-33.33Z" style="fill:#fdb813; fill-rule:evenodd;"/><path d="M190.24,476.43c13.02,13.02,13.02,34.12,0,47.14l-66.67,66.67c-13.02,13.02-34.12,13.02-47.14,0-13.02-13.02-13.02-34.12,0-47.14l66.67-66.67c13.02-13.02,34.12-13.02,47.14,0Z" style="fill:#fdb813; fill-rule:evenodd;"/><path d="M0,333.33c0-18.41,14.92-33.33,33.33-33.33H100c18.41,0,33.33,14.92,33.33,33.33s-14.92,33.33-33.33,33.33H33.33c-18.41,0-33.33-14.92-33.33-33.33Z" style="fill:#fdb813; fill-rule:evenodd;"/><path d="M76.43,76.43c13.02-13.02,34.12-13.02,47.14,0l66.67,66.67c13.02,13.02,13.02,34.12,0,47.14-13.02,13.02-34.12,13.02-47.14,0L76.43,123.57c-13.02-13.02-13.02-34.12,0-47.14Z" style="fill:#fdb813; fill-rule:evenodd;"/></g></svg>