<?xml version="1.0" encoding="UTF-8"?><svg id="Layer_2" xmlns="http://www.w3.org/2000/svg" viewBox="0 0 800 800"><g id="Layer_1-2"><g><path d="M94.94,218.57c-12.21,0-22.1-9.89-22.1-22.1V94.94c0-12.21,9.89-22.1,22.1-22.1h101.53c12.21,0,22.1,9.89,22.1,22.1s-9.89,22.1-22.1,22.1H117.04v79.43c0,12.21-9.89,22.1-22.1,22.1Z" style="fill:#51bbfe;"/><path d="M705.06,727.16h-101.53c-12.21,0-22.1-9.89-22.1-22.1s9.89-22.1,22.1-22.1h79.43v-79.43c0-12.21,9.89-22.1,22.1-22.1s22.1,9.89,22.1,22.1v101.53c0,12.2-9.9,22.1-22.1,22.1Z" style="fill:#51bbfe;"/><path d="M777.9,800H22.1c-12.21,0-22.1-9.89-22.1-22.1V22.1C0,9.89,9.89,0,22.1,0H777.9c12.2,0,22.1,9.89,22.1,22.1V777.9c0,12.2-9.89,22.1-22.1,22.1ZM44.2,755.8H755.8V44.2H44.2V755.8Z" style="fill:#51bbfe;"/></g><path d="M576.75,415.68c12.4-33.12,18.95-68.47,18.95-102.2v-1.61c0-5.42,2.45-10.51,6.72-13.99,16.22-13.17,41.99-46.08,41.99-46.08,0,0-61.63-10.37-62.72-10.37-3.31,0-19.53-16.55-22.06-18.78-19.29-17-44.1-26.37-69.87-26.37-11.15,0-22.4,1.74-33.45,5.17-34.24,10.62-60.66,38.86-68.95,73.71-3.11,13.07-3.95,26.15-2.5,38.88,.16,1.47-.53,2.48-.95,2.96-.75,.84-1.81,1.32-2.92,1.32-.12,0-.25,0-.37-.02-37.34-3.47-72.85-14.17-104.99-31.29-32.38-17.24-61.34-40.98-85.32-70.39-2.43-2.99-7.11-2.62-9.05,.71-9.35,16.05-14.3,34.41-14.3,53.09,0,28.62,11.5,55.6,31.48,75.27-8.4-1.99-16.54-5.13-24.09-9.33-3.65-2.03-8.15,.58-8.2,4.76-.52,42.52,24.38,80.37,61.68,97.4-.75,.02-1.5,.02-2.26,.02-5.91,0-11.9-.57-17.79-1.7-4.12-.78-7.58,3.12-6.3,7.11,12.11,37.8,44.65,65.66,83.6,71.98-32.32,21.7-69.96,33.14-109.14,33.14h-12.21c-3.77,0-6.95,2.45-7.91,6.09-.95,3.58,.79,7.38,4,9.24,44.14,25.69,94.5,39.27,145.63,39.27,44.76,0,86.63-8.88,124.45-26.4,34.67-16.06,65.31-39.01,91.06-68.23" style="fill:#1a202c;"/><path d="M305.48,625.81c-55.04,0-109.24-14.61-156.75-42.27-11.85-6.88-17.72-20.86-14.26-33.97,3.48-13.27,15.52-22.57,29.28-22.57h12.22c19.07,0,37.78-3.07,55.52-9.03-23.73-15.85-42.13-39.46-51.03-67.25-1.94-6.06-1.68-12.57,.55-18.37-23.61-23.88-37.37-56.65-36.94-91.47,.11-8.5,3.97-16.24,10.51-21.36-6.36-15.33-9.7-31.93-9.7-49.08,0-22.58,5.98-44.79,17.3-64.21,4.57-7.83,12.69-12.93,21.73-13.63,9.05-.71,17.85,3.08,23.56,10.1,21.98,26.96,48.41,48.78,78.55,64.82,23.92,12.73,49.51,21.48,76.31,26.1,.49-7.84,1.66-15.71,3.53-23.57,10.09-42.41,42.24-76.78,83.9-89.7,13.16-4.09,26.62-6.16,40-6.16,31.15,0,61.15,11.33,84.48,31.89,.64,.57,2.05,1.9,3.88,3.68,2.13,2.06,7.75,7.5,11.27,10.5,7.48,1.16,23.29,3.8,58.68,9.75,7.69,1.29,14.12,6.54,16.94,13.8s1.6,15.48-3.2,21.61c-2.72,3.47-26.48,33.59-44.01,48.42-.05,36.25-7.08,74.14-20.35,109.59-4.28,11.43-17.01,17.23-28.44,12.95-11.43-4.28-17.23-17.01-12.95-28.44,11.48-30.67,17.55-63.33,17.55-94.45v-1.61c0-12.1,5.42-23.45,14.88-31.14,3.96-3.22,8.87-8.13,13.89-13.56-11.03-1.83-20.08-3.32-22.77-3.73-9.99-.82-17.45-7.64-32.22-21.93-1.1-1.07-1.96-1.91-2.45-2.36-15.17-13.37-34.79-20.77-55.17-20.77-8.93,0-17.98,1.4-26.9,4.17-26.82,8.32-47.51,30.43-54,57.72-2.51,10.56-3.2,21.08-2.04,31.27,.82,7.32-1.51,14.64-6.38,20.12-5.56,6.21-13.69,9.44-21.94,8.64-40.02-3.72-78.15-15.09-113.25-33.77-27.4-14.59-52.16-33.21-73.89-55.54-1.51,6.34-2.28,12.86-2.28,19.44,0,22.59,8.84,43.72,24.89,59.52,7.07,6.96,8.63,17.77,3.83,26.45-4.8,8.68-14.79,13.1-24.44,10.8-.49-.12-.97-.23-1.46-.36,6.87,22.5,23.06,41.51,45.13,51.59,9.38,4.28,14.54,14.48,12.46,24.57-1.7,8.22-7.83,14.59-15.62,16.8,12.8,18,32.54,30.73,54.77,34.34,8.95,1.45,16.11,8.23,18.05,17.1,1.94,8.86-1.74,18.01-9.27,23.07-24.06,16.15-50.82,27.21-78.94,32.75,27.88,9.58,57.3,14.54,87,14.54,41.54,0,80.28-8.19,115.16-24.35,31.87-14.76,60.05-35.89,83.77-62.8,8.07-9.16,22.04-10.04,31.19-1.96,9.16,8.07,10.04,22.04,1.96,31.19-27.8,31.54-60.89,56.32-98.35,73.67-40.74,18.88-85.74,28.45-133.74,28.45Zm77.09-329.5s.07,0,.1,0c-.03,0-.07,0-.1,0Zm199.1-32.77h0Zm-408.48-32.93s.02,.02,.02,.03c0-.01-.02-.02-.02-.03Zm409.47-11.25c.55,.03,1.31,.11,2.69,.3-.83-.15-1.72-.25-2.69-.3Z" style="fill:#51bbfe;"/></g></svg>